<svg class="w-[12px] h-[12px] sm:w-[16px] sm:h-[16px]" viewBox="0 0 16 16" fill="none" xmlns="http://www.w3.org/2000/svg"><path fill-rule="evenodd" clip-rule="evenodd" d="M5.99984 1.33301C3.0545 1.33301 0.666504 4.00167 0.666504 6.99968C0.666504 9.97434 2.3685 13.2077 5.02451 14.449C5.32978 14.592 5.66275 14.666 5.99984 14.666C6.33693 14.666 6.66989 14.592 6.97517 14.449C9.63117 13.2077 11.3332 9.97434 11.3332 6.99968C11.3332 4.00167 8.94517 1.33301 5.99984 1.33301ZM5.99984 7.99968C6.35346 7.99968 6.6926 7.8592 6.94265 7.60915C7.1927 7.3591 7.33317 7.01996 7.33317 6.66634C7.33317 6.31272 7.1927 5.97358 6.94265 5.72353C6.6926 5.47348 6.35346 5.33301 5.99984 5.33301C5.64622 5.33301 5.30708 5.47348 5.05703 5.72353C4.80698 5.97358 4.6665 6.31272 4.6665 6.66634C4.6665 7.01996 4.80698 7.3591 5.05703 7.60915C5.30708 7.8592 5.64622 7.99968 5.99984 7.99968Z" fill="black" fill-opacity="0.7"></path></svg>