<svg class="w-[26px] sm:w-[36px] h-[21px] sm:h-[31px] xl:w-[50px] xl:h-[45px]" width="50" height="45" viewBox="0 0 50 45" fill="none" xmlns="http://www.w3.org/2000/svg"><ellipse cx="13.8886" cy="15" rx="13.8886" ry="13.8886" fill="url(#paint0_linear_133_6005)"></ellipse><g filter="url(#filter0_b_133_6005)"><g filter="url(#filter1_b_133_6005)"><path fill-rule="evenodd" clip-rule="evenodd" d="M46.2966 22.2223C46.2966 32.4496 38.0057 40.7404 27.7784 40.7404C17.5511 40.7404 9.26025 32.4496 9.26025 22.2223C9.26025 11.995 17.5511 3.7041 27.7784 3.7041C38.0057 3.7041 46.2966 11.995 46.2966 22.2223Z" fill="#00C16A" fill-opacity="0.35"></path><path d="M27.7784 41.2404C38.2818 41.2404 46.7966 32.7257 46.7966 22.2223C46.7966 11.7188 38.2818 3.2041 27.7784 3.2041C17.275 3.2041 8.76025 11.7188 8.76025 22.2223C8.76025 32.7257 17.275 41.2404 27.7784 41.2404Z" stroke="url(#paint1_linear_133_6005)" stroke-linecap="round"></path></g></g><g filter="url(#filter1_b_133_6005)"><g filter="url(#filter1_b_133_6005)"><path fill-rule="evenodd" clip-rule="evenodd" d="M17.8802 24.6926C18.5612 24.3395 19.3994 24.6053 19.7525 25.2863C20.2508 26.2474 21.2875 27.4693 22.7263 28.4476C24.1525 29.4174 25.8914 30.0922 27.7786 30.0922C29.6658 30.0922 31.4047 29.4174 32.8309 28.4476C34.2697 27.4693 35.3064 26.2474 35.8047 25.2863C36.1578 24.6053 36.996 24.3395 37.677 24.6926C38.3579 25.0457 38.6237 25.884 38.2706 26.5649C37.5344 27.9847 36.1638 29.5405 34.3927 30.7447C32.6091 31.9575 30.3358 32.8699 27.7786 32.8699C25.2214 32.8699 22.9481 31.9575 21.1645 30.7447C19.3934 29.5405 18.0228 27.9847 17.2866 26.5649C16.9335 25.884 17.1993 25.0457 17.8802 24.6926ZM22.2232 16.6665C23.2459 16.6665 24.075 15.8374 24.075 14.8147C24.075 13.792 23.2459 12.9629 22.2232 12.9629C21.2004 12.9629 20.3713 13.792 20.3713 14.8147C20.3713 15.8374 21.2004 16.6665 22.2232 16.6665ZM33.334 16.6665C34.3568 16.6665 35.1859 15.8374 35.1859 14.8147C35.1859 13.792 34.3568 12.9629 33.334 12.9629C32.3113 12.9629 31.4822 13.792 31.4822 14.8147C31.4822 15.8374 32.3113 16.6665 33.334 16.6665Z" fill="url(#paint2_linear_133_6005)"></path></g></g><defs><filter id="filter0_b_133_6005" x="-15.7397" y="-21.2959" width="87.0361" height="87.0361" filterUnits="userSpaceOnUse" color-interpolation-filters="sRGB"><feFlood flood-opacity="0" result="BackgroundImageFix"></feFlood><feGaussianBlur in="BackgroundImageFix" stdDeviation="12"></feGaussianBlur><feComposite in2="SourceAlpha" operator="in" result="effect1_backgroundBlur_133_6005"></feComposite><feBlend mode="normal" in="SourceGraphic" in2="effect1_backgroundBlur_133_6005" result="shape"></feBlend></filter><filter id="filter1_b_133_6005" x="-15.7397" y="-21.2959" width="87.0361" height="87.0361" filterUnits="userSpaceOnUse" color-interpolation-filters="sRGB"><feFlood flood-opacity="0" result="BackgroundImageFix"></feFlood><feGaussianBlur in="BackgroundImageFix" stdDeviation="12"></feGaussianBlur><feComposite in2="SourceAlpha" operator="in" result="effect1_backgroundBlur_133_6005"></feComposite><feBlend mode="normal" in="SourceGraphic" in2="effect1_backgroundBlur_133_6005" result="shape"></feBlend></filter><filter id="filter2_d_133_6005" x="13.8745" y="9.70706" width="34.3197" height="32.9305" filterUnits="userSpaceOnUse" color-interpolation-filters="sRGB"><feFlood flood-opacity="0" result="BackgroundImageFix"></feFlood><feColorMatrix in="SourceAlpha" type="matrix" values="0 0 0 0 0 0 0 0 0 0 0 0 0 0 0 0 0 0 127 0" result="hardAlpha"></feColorMatrix><feOffset dx="3.25583" dy="3.25583"></feOffset><feGaussianBlur stdDeviation="3.25583"></feGaussianBlur><feColorMatrix type="matrix" values="0 0 0 0 0.376471 0 0 0 0 0.156863 0 0 0 0 0.811765 0 0 0 0.5 0"></feColorMatrix><feBlend mode="normal" in2="BackgroundImageFix" result="effect1_dropShadow_133_6005"></feBlend><feBlend mode="normal" in="SourceGraphic" in2="effect1_dropShadow_133_6005" result="shape"></feBlend></filter><filter id="filter3_d_133_6005" x="13.8745" y="9.70706" width="34.3197" height="32.9305" filterUnits="userSpaceOnUse" color-interpolation-filters="sRGB"><feFlood flood-opacity="0" result="BackgroundImageFix"></feFlood><feColorMatrix in="SourceAlpha" type="matrix" values="0 0 0 0 0 0 0 0 0 0 0 0 0 0 0 0 0 0 127 0" result="hardAlpha"></feColorMatrix><feOffset dx="3.25583" dy="3.25583"></feOffset><feGaussianBlur stdDeviation="3.25583"></feGaussianBlur><feColorMatrix type="matrix" values="0 0 0 0 0.298039 0 0 0 0 0.8 0 0 0 0 0.505882 0 0 0 0.6 0"></feColorMatrix><feBlend mode="normal" in2="BackgroundImageFix" result="effect1_dropShadow_133_6005"></feBlend><feBlend mode="normal" in="SourceGraphic" in2="effect1_dropShadow_133_6005" result="shape"></feBlend></filter><linearGradient id="paint0_linear_133_6005" x1="1.11622e-07" y1="28.8886" x2="28.3691" y2="1.72963" gradientUnits="userSpaceOnUse"><stop stop-color="#00C16A"></stop><stop offset="1" stop-color="#49D07E"></stop></linearGradient><linearGradient id="paint1_linear_133_6005" x1="9.26025" y1="3.7041" x2="46.3153" y2="40.7216" gradientUnits="userSpaceOnUse"><stop stop-color="white" stop-opacity="0.25"></stop><stop offset="1" stop-color="white" stop-opacity="0"></stop></linearGradient><linearGradient id="paint2_linear_133_6005" x1="27.9579" y1="37.111" x2="55.4073" y2="8.32582" gradientUnits="userSpaceOnUse"><stop stop-color="white"></stop><stop offset="1" stop-color="white" stop-opacity="0.2"></stop></linearGradient></defs></svg>