<svg width="32" height="32" viewBox="0 0 32 32" fill="none" xmlns="http://www.w3.org/2000/svg">
<g clip-path="url(#clip0_200_4487)">
<path d="M3.9 20.065L0.855 16.75L3.9 13.435H7.125L4.065 16.75L7.125 20.065H3.9ZM14.5617 22L12.3717 18.025H11.7567V22H9.19172V11.47H13.4967C14.3267 11.47 15.0317 11.615 15.6117 11.905C16.2017 12.195 16.6417 12.595 16.9317 13.105C17.2217 13.605 17.3667 14.165 17.3667 14.785C17.3667 15.485 17.1667 16.11 16.7667 16.66C16.3767 17.21 15.7967 17.6 15.0267 17.83L17.4567 22H14.5617ZM11.7567 16.21H13.3467C13.8167 16.21 14.1667 16.095 14.3967 15.865C14.6367 15.635 14.7567 15.31 14.7567 14.89C14.7567 14.49 14.6367 14.175 14.3967 13.945C14.1667 13.715 13.8167 13.6 13.3467 13.6H11.7567V16.21ZM24.6919 7.75L20.6719 24.805H18.1969L22.2169 7.75H24.6919ZM25.7888 13.435H29.0138L32.0588 16.75L29.0138 20.065H25.7888L28.8488 16.75L25.7888 13.435Z" fill="#00C16A"/>
</g>
<defs>
<clipPath id="clip0_200_4487">
<rect width="32" height="32" fill="white"/>
</clipPath>
</defs>
</svg>
