<svg class="w-[26px] sm:w-[36px] h-[30px] sm:h-[40px] xl:w-[50px] xl:h-[54px]" width="50" height="54" viewBox="0 0 50 54" fill="none" xmlns="http://www.w3.org/2000/svg"><circle cx="35.89" cy="19.89" r="13.89" fill="url(#paint0_linear_133_6012)"></circle><g clip-path="url(#clip0_133_6012)"><g filter="url(#filter0_b_133_6012)"><path d="M29.3317 12.0225C31.643 12.0225 33.4551 12.0224 34.9116 12.1414C36.3946 12.2626 37.6198 12.5134 38.7287 13.0785C40.5518 14.0074 42.034 15.4896 42.9629 17.3126C43.5279 18.4216 43.7787 19.6467 43.8999 21.1298C44.0189 22.5861 44.0189 24.3982 44.0189 26.7094V26.8229C44.0189 29.134 44.0189 30.9463 43.8999 32.4026C43.7787 33.8857 43.5279 35.1109 42.9629 36.2198C42.034 38.0429 40.5518 39.5251 38.7287 40.4539C37.6198 41.019 36.3946 41.2698 34.9116 41.391C33.4552 41.51 31.6431 41.51 29.332 41.51H25.4839V44.6002C26.5359 44.6738 27.5831 44.8393 28.6134 45.0969L31.2666 45.7602C31.9437 45.9295 32.3554 46.6156 32.1862 47.2927C32.0169 47.9698 31.3307 48.3815 30.6536 48.2122L28.0004 47.5489C26.7594 47.2387 25.4898 47.0835 24.2201 47.0835C22.9505 47.0835 21.6809 47.2387 20.4399 47.5489L17.7866 48.2122C17.1095 48.3815 16.4234 47.9698 16.2541 47.2927C16.0848 46.6156 16.4965 45.9295 17.1736 45.7602L19.8269 45.0969C20.8571 44.8393 21.9043 44.6738 22.9564 44.6002V41.51H19.1085C16.7973 41.51 14.9851 41.51 13.5287 41.391C12.0457 41.2698 10.8205 41.019 9.71154 40.4539C7.88848 39.5251 6.40629 38.0429 5.4774 36.2198C4.91236 35.1109 4.66154 33.8857 4.54037 32.4026C4.42137 30.9462 4.42138 29.1341 4.42139 26.8228V26.7097C4.42138 24.3983 4.42137 22.5862 4.54037 21.1298C4.66154 19.6467 4.91236 18.4216 5.4774 17.3126C6.40629 15.4896 7.88848 14.0074 9.71154 13.0785C10.8205 12.5134 12.0457 12.2626 13.5287 12.1414C14.9851 12.0224 16.7972 12.0225 19.1086 12.0225H29.3317Z" fill="#00C16A" fill-opacity="0.35"></path><path d="M34.9523 11.6431C33.4755 11.5224 31.6467 11.5225 29.3533 11.5225L29.3317 11.5225H19.1086L19.087 11.5225C16.7936 11.5225 14.9648 11.5224 13.488 11.6431C11.974 11.7668 10.6757 12.026 9.48454 12.633C7.5674 13.6098 6.00872 15.1685 5.03189 17.0856C4.42497 18.2768 4.16573 19.575 4.04203 21.0891C3.92137 22.5658 3.92138 24.3947 3.92139 26.6881L3.92139 26.7097V26.8228L3.92139 26.8444C3.92138 29.1377 3.92137 30.9666 4.04203 32.4434C4.16573 33.9574 4.42497 35.2557 5.03189 36.4468C6.00872 38.3639 7.5674 39.9226 9.48454 40.8995C10.6757 41.5064 11.974 41.7656 13.488 41.8893C14.9646 42.01 16.7936 42.01 19.0867 42.01H19.1085H22.4564V44.1398C21.5319 44.2278 20.6124 44.3851 19.7056 44.6118L17.0524 45.2751L17.1736 45.7602L17.0524 45.2751C16.1074 45.5114 15.5328 46.469 15.769 47.414C16.0053 48.359 16.9629 48.9335 17.9079 48.6973L20.5612 48.034C21.7624 47.7337 22.9912 47.5835 24.2201 47.5835C25.449 47.5835 26.6779 47.7337 27.8791 48.034L30.5324 48.6973C31.4774 48.9335 32.435 48.359 32.6712 47.414C32.9075 46.469 32.3329 45.5114 31.3879 45.2751L28.7346 44.6118C27.8279 44.3851 26.9084 44.2278 25.9839 44.1398V42.01H29.332H29.3538C31.6469 42.01 33.4756 42.01 34.9523 41.8893C36.4663 41.7656 37.7646 41.5064 38.9557 40.8995C40.8729 39.9226 42.4315 38.3639 43.4084 36.4468C44.0153 35.2557 44.2745 33.9574 44.3982 32.4434C44.5189 30.9666 44.5189 29.1376 44.5189 26.8444V26.8229V26.7094V26.6879C44.5189 24.3946 44.5189 22.5658 44.3982 21.0891C44.2745 19.575 44.0153 18.2768 43.4084 17.0856C42.4315 15.1685 40.8729 13.6098 38.9557 12.633C37.7646 12.026 36.4663 11.7668 34.9523 11.6431Z" stroke="url(#paint1_linear_133_6012)" stroke-linecap="round"></path></g></g><defs><filter id="filter0_b_133_6012" x="-20.5786" y="-12.9775" width="89.5977" height="86.2285" filterUnits="userSpaceOnUse" color-interpolation-filters="sRGB"><feFlood flood-opacity="0" result="BackgroundImageFix"></feFlood><feGaussianBlur in="BackgroundImageFix" stdDeviation="12"></feGaussianBlur><feComposite in2="SourceAlpha" operator="in" result="effect1_backgroundBlur_133_6012"></feComposite><feBlend mode="normal" in="SourceGraphic" in2="effect1_backgroundBlur_133_6012" result="shape"></feBlend></filter><linearGradient id="paint0_linear_133_6012" x1="22" y1="33.78" x2="50.3719" y2="6.61831" gradientUnits="userSpaceOnUse"><stop stop-color="#00C16A"></stop><stop offset="1" stop-color="#49D07E"></stop></linearGradient><linearGradient id="paint1_linear_133_6012" x1="4.42139" y1="12.0225" x2="40.5279" y2="51.4474" gradientUnits="userSpaceOnUse"><stop stop-color="white" stop-opacity="0.25"></stop><stop offset="1" stop-color="white" stop-opacity="0"></stop></linearGradient><clipPath id="clip0_133_6012"><rect width="40.44" height="40.44" fill="white" transform="translate(4 10)"></rect></clipPath></defs></svg>